<?xml version="1.0" encoding="UTF-8"?>
<svg width="120" height="120" viewBox="0 0 120 120" fill="none" xmlns="http://www.w3.org/2000/svg">
  <circle cx="60" cy="60" r="60" fill="#00704A"/>
  <path d="M60 20C42.33 20 28 34.33 28 52C28 69.67 42.33 84 60 84C77.67 84 92 69.67 92 52C92 34.33 77.67 20 60 20ZM60 80C44.54 80 32 67.46 32 52C32 36.54 44.54 24 60 24C75.46 24 88 36.54 88 52C88 67.46 75.46 80 60 80Z" fill="white"/>
  <path d="M60 28C46.75 28 36 38.75 36 52C36 65.25 46.75 76 60 76C73.25 76 84 65.25 84 52C84 38.75 73.25 28 60 28ZM60 72C48.97 72 40 63.03 40 52C40 40.97 48.97 32 60 32C71.03 32 80 40.97 80 52C80 63.03 71.03 72 60 72Z" fill="white"/>
  <path d="M60 36C51.17 36 44 43.17 44 52C44 60.83 51.17 68 60 68C68.83 68 76 60.83 76 52C76 43.17 68.83 36 60 36ZM60 64C53.39 64 48 58.61 48 52C48 45.39 53.39 40 60 40C66.61 40 72 45.39 72 52C72 58.61 66.61 64 60 64Z" fill="white"/>
  <path d="M60 44C55.58 44 52 47.58 52 52C52 56.42 55.58 60 60 60C64.42 60 68 56.42 68 52C68 47.58 64.42 44 60 44Z" fill="white"/>
  <path d="M54 90L51.2 100H68.8L66 90H54Z" fill="white"/>
  <path d="M49.6 104L48 110H72L70.4 104H49.6Z" fill="white"/>
</svg>